HIERARCHY
ROOT Hips
{
	OFFSET 48.045300 -20.788813 85.557701
	CHANNELS 6 Xposition Yposition Zposition Xrotation Yrotation Zrotation
	JOINT spine
	{
		OFFSET 0.000000 -0.367607 6.392601
		CHANNELS 3 Xrotation Yrotation Zrotation
		JOINT spine1
		{
			OFFSET 0.000000 -0.000002 9.176109
			CHANNELS 3 Xrotation Yrotation Zrotation
			JOINT spine2
			{
				OFFSET 0.000000 0.000000 8.792381
				CHANNELS 3 Xrotation Yrotation Zrotation
				JOINT Neck
				{
					OFFSET 0.000000 -1.076244 22.573700
					CHANNELS 3 Xrotation Yrotation Zrotation
					JOINT Head
					{
						OFFSET 0.000000 -0.000002 6.820114
						CHANNELS 3 Xrotation Yrotation Zrotation
						End Site
						{
							OFFSET 0.000000 5.444267 16.508499
						}
					}
				}
				JOINT RightShoulder
				{
					OFFSET -3.702209 0.515507 9.495087
					CHANNELS 3 Xrotation Yrotation Zrotation
					JOINT RightArm
					{
						OFFSET 0.000000 -0.000002 12.453705
						CHANNELS 3 Xrotation Yrotation Zrotation
						JOINT RightArmRoll
						{
							OFFSET 0.000000 -0.000002 6.286850
							CHANNELS 3 Xrotation Yrotation Zrotation
							JOINT RightForeArm
							{
								OFFSET 0.000000 -0.000002 18.311401
								CHANNELS 3 Xrotation Yrotation Zrotation
								JOINT RightForeArmRoll
								{
									OFFSET 0.000000 -0.000002 7.054825
									CHANNELS 3 Xrotation Yrotation Zrotation
									JOINT RightHand
									{
										OFFSET 0.000000 -0.000002 14.157501
										CHANNELS 3 Xrotation Yrotation Zrotation
										End Site
										{
											OFFSET 0.000000 0.000000 0.100006
										}
									}
								}
							}
						}
					}
				}
				JOINT LeftShoulder
				{
					OFFSET 3.702209 0.515507 9.495087
					CHANNELS 3 Xrotation Yrotation Zrotation
					JOINT LeftArm
					{
						OFFSET 0.000000 -0.000002 12.453705
						CHANNELS 3 Xrotation Yrotation Zrotation
						JOINT LeftArmRoll
						{
							OFFSET 0.000000 -0.000002 6.286850
							CHANNELS 3 Xrotation Yrotation Zrotation
							JOINT LeftForeArm
							{
								OFFSET 0.000000 -0.000002 18.311401
								CHANNELS 3 Xrotation Yrotation Zrotation
								JOINT LeftForeArmRoll
								{
									OFFSET 0.000000 -0.000002 7.054825
									CHANNELS 3 Xrotation Yrotation Zrotation
									JOINT LeftHand
									{
										OFFSET 0.000000 -0.000002 14.157501
										CHANNELS 3 Xrotation Yrotation Zrotation
										End Site
										{
											OFFSET 0.000000 0.000000 0.100006
										}
									}
								}
							}
						}
					}
				}
			}
		}
	}
	JOINT RightUpLeg
	{
		OFFSET -5.666161 0.871611 -1.039032
		CHANNELS 3 Xrotation Yrotation Zrotation
		JOINT RightUpLegRoll
		{
			OFFSET 0.000000 -0.000004 16.600502
			CHANNELS 3 Xrotation Yrotation Zrotation
			JOINT RightLeg
			{
				OFFSET 0.000000 0.000004 -20.557198
				CHANNELS 3 Xrotation Yrotation Zrotation
				JOINT RightLegRoll
				{
					OFFSET 0.000000 -0.000004 20.624397
					CHANNELS 3 Xrotation Yrotation Zrotation
					JOINT RightFoot
					{
						OFFSET 0.000000 -0.000002 17.166397
						CHANNELS 3 Xrotation Yrotation Zrotation
						JOINT RightToeBase
						{
							OFFSET 0.000000 -0.000002 14.350204
							CHANNELS 3 Xrotation Yrotation Zrotation
							End Site
							{
								OFFSET 0.006081 0.801058 6.949707
							}
						}
					}
				}
			}
		}
	}
	JOINT LeftUpLeg
	{
		OFFSET 5.666161 0.871611 -1.039032
		CHANNELS 3 Xrotation Yrotation Zrotation
		JOINT LeftUpLegRoll
		{
			OFFSET 0.000000 -0.000004 16.600601
			CHANNELS 3 Xrotation Yrotation Zrotation
			JOINT LeftLeg
			{
				OFFSET 0.000000 -0.000002 20.557098
				CHANNELS 3 Xrotation Yrotation Zrotation
				JOINT LeftLegRoll
				{
					OFFSET 0.000000 -0.000004 20.815102
					CHANNELS 3 Xrotation Yrotation Zrotation
					JOINT LeftFoot
					{
						OFFSET 0.000000 -0.000004 16.975693
						CHANNELS 3 Xrotation Yrotation Zrotation
						JOINT LeftToeBase
						{
							OFFSET 0.000000 -0.000002 14.350204
							CHANNELS 3 Xrotation Yrotation Zrotation
							End Site
							{
								OFFSET -0.027260 0.801062 6.949707
							}
						}
					}
				}
			}
		}
	}
}
MOTION
Frames: 6
Frame Time: 0.041667
48.293102 -12.849812 91.731903 6.661268 -1.032335 0.065501 -2.569708 0.798178 -0.239300 -1.133594 1.604456 -0.450644 0.511721 1.598956 -0.469839 24.076451 -2.804257 0.965721 2.877173 1.090544 0.852835 -27.106579 -26.321141 -34.478580 -115.792730 -121.218550 -74.946054 -0.000005 0.000017 -0.000005 48.000695 2.207046 -1.023598 0.000008 -0.000000 -3.000152 -5.000162 -7.998949 0.000166 -21.683049 19.677978 26.778320 -126.186379 118.878377 98.861360 -0.000001 -0.000022 0.000003 46.323480 -2.564732 -0.021332 0.000004 0.000000 3.003458 -5.000171 7.998716 -0.000161 -14.290432 -169.012894 0.903658 -179.999991 0.000005 -1.149994 160.116491 0.064880 -0.973533 0.000005 -0.000003 0.087402 66.497322 6.880172 2.321197 25.456953 -7.355614 -0.000001 -14.041670 171.096649 0.052229 -0.000004 -0.000005 -1.118340 -18.945599 0.024910 0.631972 0.000000 0.000003 -0.118227 66.669217 -6.929629 -2.204669 25.456957 7.355621 0.000003 
48.304703 -12.867016 91.768188 6.651919 -1.020138 0.088320 -2.564351 0.789306 -0.233810 -1.122991 1.586505 -0.440044 0.522320 1.581134 -0.459024 23.950719 -2.707958 0.917498 2.973107 1.004486 0.816023 -27.101921 -26.536050 -34.455740 -115.321693 -120.724167 -74.987376 -0.000004 0.000017 -0.000004 47.015006 2.248173 -1.091456 0.000005 -0.000001 -3.000143 -5.000161 -7.998942 0.000169 -21.667501 20.096793 26.740027 -125.700875 118.540925 98.554289 -0.000002 -0.000022 0.000004 46.198481 -2.494324 -0.007140 0.000004 -0.000001 3.003470 -5.000170 7.998715 -0.000161 -14.334964 -169.231570 0.907359 -179.999991 0.000005 -1.143997 160.061399 -0.063921 -0.998192 0.000004 -0.000004 0.098926 66.550802 6.871111 2.340156 25.456950 -7.355614 -0.000000 -14.095082 171.309464 0.119131 -0.000004 -0.000003 -1.110730 -19.019920 0.079454 0.645244 0.000001 0.000003 -0.124230 66.718606 -6.924862 -2.214065 25.456957 7.355622 0.000005 
48.344406 -12.878116 91.836090 6.639584 -1.012495 0.109707 -2.558656 0.781624 -0.229285 -1.111698 1.570974 -0.431338 0.533608 1.565702 -0.450132 23.836798 -2.611941 0.871898 3.060214 0.920446 0.781379 -27.087250 -26.778407 -34.416114 -114.910529 -120.235522 -75.028993 -0.000004 0.000017 -0.000005 46.104549 2.287522 -1.151584 0.000003 -0.000002 -3.000140 -5.000162 -7.998945 0.000171 -21.649637 20.519403 26.697736 -125.225549 118.190591 98.227874 -0.000002 -0.000022 0.000006 46.085137 -2.442345 0.015863 0.000003 0.000001 3.003491 -5.000171 7.998713 -0.000160 -14.375851 -169.442240 0.910810 -179.999991 0.000005 -1.137002 160.005897 -0.187941 -1.022378 0.000004 -0.000003 0.109722 66.603811 6.862572 2.357962 25.456960 -7.355613 -0.000002 -14.140273 171.526732 0.187033 -0.000004 -0.000005 -1.103490 -19.091651 0.131921 0.657971 0.000001 0.000003 -0.129959 66.765830 -6.920197 -2.223324 25.456955 7.355624 0.000006 
48.316006 -12.897415 91.876503 6.624016 -1.010183 0.129604 -2.552664 0.775362 -0.225863 -1.099787 1.558313 -0.424791 0.545522 1.553119 -0.443434 23.738100 -2.516780 0.829202 3.135564 0.839090 0.749094 -27.061700 -27.053015 -34.357863 -114.571376 -119.754280 -75.074796 -0.000001 0.000017 -0.000005 45.282973 2.323718 -1.203542 0.000003 -0.000002 -3.000129 -5.000163 -7.998947 0.000167 -21.629240 20.947294 26.650534 -124.778609 117.823727 97.901678 -0.000001 -0.000022 0.000008 45.982394 -2.409253 0.049526 0.000002 0.000000 3.003499 -5.000175 7.998712 -0.000160 -14.412211 -169.643867 0.913679 -179.999991 0.000005 -1.131006 159.950299 -0.307180 -1.045104 0.000004 -0.000002 0.119670 66.656137 6.854619 2.374442 25.456953 -7.355615 -0.000000 -14.176012 171.749410 0.255914 -0.000005 -0.000005 -1.096690 -19.159201 0.182226 0.670036 -0.000000 0.000002 -0.135376 66.810472 -6.915657 -2.232080 25.456957 7.355622 0.000004 
48.369404 -12.906212 91.921997 6.604170 -1.014147 0.148988 -2.545970 0.770590 -0.223736 -1.086457 1.548682 -0.420797 0.558846 1.543537 -0.439324 23.648161 -2.419354 0.788565 3.206766 0.757882 0.718666 -27.023760 -27.351090 -34.278773 -114.279119 -119.277000 -75.096864 -0.000003 0.000016 -0.000002 44.552016 2.357000 -1.247948 0.000003 -0.000001 -3.000130 -5.000165 -7.998947 0.000171 -21.607971 21.374952 26.601213 -124.279240 117.440649 97.468070 -0.000001 -0.000021 0.000007 45.920718 -2.407685 0.092572 0.000006 0.000001 3.003512 -5.000167 7.998715 -0.000162 -14.444387 -169.835536 0.918188 -179.999991 0.000005 -1.123998 159.893130 -0.422571 -1.066697 0.000004 -0.000003 0.128951 66.708504 6.847175 2.389832 25.456953 -7.355613 -0.000002 -14.202977 171.979450 0.328352 -0.000005 -0.000004 -1.090250 -19.225056 0.229790 0.681470 0.000001 0.000002 -0.140499 66.853174 -6.911260 -2.240585 25.456960 7.355622 0.000006 
48.351402 -12.924913 91.961685 6.579548 -1.024241 0.168642 -2.538268 0.767095 -0.222887 -1.071067 1.541641 -0.419335 0.574232 1.536513 -0.437777 23.558321 -2.316743 0.749023 3.282729 0.674206 0.689495 -26.973242 -27.660567 -34.178847 -113.997940 -118.800704 -75.066777 -0.000004 0.000018 -0.000005 43.896885 2.388267 -1.286063 0.000003 -0.000003 -3.000129 -5.000165 -7.998943 0.000173 -21.587441 21.796851 26.552839 -123.640002 117.047108 96.818792 -0.000002 -0.000022 0.000005 45.923511 -2.446321 0.141804 0.000003 -0.000003 3.003529 -5.000169 7.998714 -0.000163 -14.473734 -170.018298 0.926335 -179.999991 0.000006 -1.118002 159.832574 -0.538813 -1.089898 0.000005 -0.000003 0.137837 66.761746 6.840180 2.403971 25.456953 -7.355613 -0.000002 -14.223116 172.219887 0.405668 -0.000005 -0.000004 -1.084060 -19.292527 0.274296 0.692420 0.000002 0.000003 -0.145392 66.894832 -6.907186 -2.248031 25.456952 7.355623 0.000005 
